<mxfile host="app.diagrams.net" modified="2023-04-27T05:32:30.834Z" agent="Mozilla/5.0 (Windows NT 10.0; Win64; x64) AppleWebKit/537.36 (KHTML, like Gecko) Chrome/114.0.0.0 Safari/537.36" version="21.2.3" etag="X_MA8hj7To_U0Iu4htg-" type="github">
  <diagram name="第 1 页" id="EDU-szJDvgI6tc9w51ST">
    <mxGraphModel>
      <root>
        <mxCell id="0" />
        <mxCell id="1" parent="0" />
      </root>
    </mxGraphModel>
  </diagram>
</mxfile>
